<svg aria-hidden="true" style="position: absolute; width: 0; height: 0; overflow: hidden;" version="1.1" xmlns="http://www.w3.org/2000/svg" xmlns:xlink="http://www.w3.org/1999/xlink">
  <defs>
    <symbol id="star" viewBox="0 0 42 39">
      <path d="M14.89 2.282c0.737-2.268 3.945-2.268 4.682 0l2.080 6.402c0.33 1.014 1.275 1.701 2.341 1.701h6.731c2.384 0 3.376 3.051 1.447 4.453l-5.446 3.957c-0.863 0.627-1.224 1.738-0.894 2.752l2.080 6.402c0.737 2.268-1.859 4.154-3.788 2.752l-5.446-3.957c-0.863-0.627-2.031-0.627-2.894 0l-5.446 3.957c-1.929 1.402-4.525-0.484-3.788-2.752l2.080-6.402c0.33-1.014-0.031-2.125-0.894-2.752l-5.446-3.957c-1.929-1.402-0.938-4.453 1.447-4.453h6.731c1.066 0 2.012-0.687 2.341-1.701l2.080-6.402z"></path>
    </symbol>

    <symbol id="trash" viewBox="0 0 16 16">
      <path d="M10.6667 3.99992V3.46659C10.6667 2.71985 10.6667 2.34648 10.5213 2.06126C10.3935 1.81038 10.1895 1.60641 9.93865 1.47858C9.65344 1.33325 9.28007 1.33325 8.53333 1.33325H7.46667C6.71993 1.33325 6.34656 1.33325 6.06135 1.47858C5.81046 1.60641 5.60649 1.81038 5.47866 2.06126C5.33333 2.34648 5.33333 2.71985 5.33333 3.46659V3.99992M6.66667 7.66659V10.9999M9.33333 7.66659V10.9999M2 3.99992H14M12.6667 3.99992V11.4666C12.6667 12.5867 12.6667 13.1467 12.4487 13.5746C12.2569 13.9509 11.951 14.2569 11.5746 14.4486C11.1468 14.6666 10.5868 14.6666 9.46667 14.6666H6.53333C5.41323 14.6666 4.85318 14.6666 4.42535 14.4486C4.04903 14.2569 3.74307 13.9509 3.55132 13.5746C3.33333 13.1467 3.33333 12.5867 3.33333 11.4666V3.99992"/>
    </symbol>

    <symbol id="arrow" viewBox="0 0 16 16">
      <path d="M7.5 14L14 7.5M14 7.5L7.5 1M14 7.5H1" stroke="#242424" stroke-width="1.3" stroke-linecap="round" stroke-linejoin="round"/>
    </symbol>

  </defs>
</svg>
